<svg width="45" height="33" viewBox="0 0 45 33" fill="none" xmlns="http://www.w3.org/2000/svg">
<path d="M42.903 25.9992V7.86006C42.903 6.62987 41.9057 5.63256 40.6755 5.63256H20.267C19.8406 5.63256 19.4232 5.51019 19.0643 5.28C18.7054 5.0498 18.4201 4.72145 18.2423 4.33393L17.0509 1.73696C16.8731 1.34944 16.5878 1.02109 16.2289 0.7909C15.87 0.560706 15.4526 0.438343 15.0262 0.438339H3.2131C1.98291 0.438339 0.985596 1.43565 0.985596 2.66584V30.2841C0.985596 31.5143 1.98291 32.5116 3.2131 32.5116H40.6755C40.8053 32.5116 40.9325 32.4999 41.0562 32.4785C41.2099 32.4998 41.3665 32.5116 41.5261 32.5116C43.4048 32.5116 44.9278 30.9887 44.9278 29.1099C44.9278 27.7213 44.0955 26.5278 42.903 25.9992Z" fill="#566885"/>
</svg>
